<svg viewBox="0 0 44 44" fill="none" xmlns="http://www.w3.org/2000/svg" class="section-card__title-art" aria-hidden="true">
  <rect x="10" y="5" width="4" height="4" rx="1" fill="currentColor"></rect>
  <rect x="15" y="5" width="4" height="4" rx="1" fill="currentColor"></rect>
  <rect x="5" y="10" width="4" height="4" rx="1" fill="currentColor"></rect>
  <rect x="20" y="10" width="4" height="4" rx="1" fill="currentColor"></rect>
  <rect x="5" y="15" width="4" height="4" rx="1" fill="currentColor"></rect>
  <rect x="20" y="15" width="4" height="4" rx="1" fill="currentColor"></rect>
  <rect x="10" y="20" width="4" height="4" rx="1" fill="currentColor"></rect>
  <rect x="15" y="20" width="4" height="4" rx="1" fill="currentColor"></rect>
  <rect x="20" y="20" width="4" height="4" rx="1" fill="currentColor"></rect>
  <rect x="25" y="20" width="4" height="4" rx="1" fill="currentColor"></rect>
  <rect x="15" y="25" width="4" height="4" rx="1" fill="currentColor"></rect>
  <rect x="30" y="25" width="4" height="4" rx="1" fill="currentColor"></rect>
  <rect x="15" y="30" width="4" height="4" rx="1" fill="currentColor"></rect>
  <rect x="30" y="30" width="4" height="4" rx="1" fill="currentColor"></rect>
  <rect x="20" y="35" width="4" height="4" rx="1" fill="currentColor"></rect>
  <rect x="25" y="35" width="4" height="4" rx="1" fill="currentColor"></rect>
  <rect x="0" y="15" width="4" height="4" rx="1" fill="var(--color-border)"></rect>
  <rect x="0" y="20" width="4" height="4" rx="1" fill="var(--color-border)"></rect>
  <rect x="5" y="25" width="4" height="4" rx="1" fill="var(--color-border)"></rect>
  <rect x="10" y="25" width="4" height="4" rx="1" fill="var(--color-border)"></rect>
  <rect x="10" y="30" width="4" height="4" rx="1" fill="var(--color-border)"></rect>
  <rect x="10" y="35" width="4" height="4" rx="1" fill="var(--color-border)"></rect>
  <rect x="15" y="40" width="4" height="4" rx="1" fill="var(--color-border)"></rect>
  <rect x="20" y="40" width="4" height="4" rx="1" fill="var(--color-border)"></rect>
  <rect x="25" y="35" width="4" height="4" rx="1" fill="var(--color-border)"></rect>
</svg>
