<svg xmlns="http://www.w3.org/2000/svg" width="512.00" height="512.00" viewBox="0 0 512.00 512.00">
  <rect x="95.88" y="49.34" width="40.96" height="40.96" rx="8.19" fill="#c5cdd8"/>
  <rect x="142.43" y="49.34" width="40.96" height="40.96" rx="8.19" fill="#c5cdd8"/>
  <rect x="188.97" y="49.34" width="40.96" height="40.96" rx="8.19" fill="#c5cdd8"/>
  <rect x="235.52" y="49.34" width="40.96" height="40.96" rx="8.19" fill="#c5cdd8"/>
  <rect x="282.07" y="49.34" width="40.96" height="40.96" rx="8.19" fill="#c5cdd8"/>
  <rect x="328.61" y="49.34" width="40.96" height="40.96" rx="8.19" fill="#c5cdd8"/>
  <rect x="421.70" y="49.34" width="40.96" height="40.96" rx="8.19" fill="#c5cdd8"/>
  <rect x="95.88" y="95.88" width="40.96" height="40.96" rx="8.19" fill="#c5cdd8"/>
  <rect x="421.70" y="95.88" width="40.96" height="40.96" rx="8.19" fill="#c5cdd8"/>
  <rect x="95.88" y="142.43" width="40.96" height="40.96" rx="8.19" fill="#c5cdd8"/>
  <rect x="421.70" y="142.43" width="40.96" height="40.96" rx="8.19" fill="#c5cdd8"/>
  <rect x="95.88" y="188.97" width="40.96" height="40.96" rx="8.19" fill="#c5cdd8"/>
  <rect x="188.97" y="188.97" width="40.96" height="40.96" rx="8.19" fill="#c5cdd8"/>
  <rect x="235.52" y="188.97" width="40.96" height="40.96" rx="8.19" fill="#c5cdd8"/>
  <rect x="282.07" y="188.97" width="40.96" height="40.96" rx="8.19" fill="#c5cdd8"/>
  <rect x="328.61" y="188.97" width="40.96" height="40.96" rx="8.19" fill="#c5cdd8"/>
  <rect x="421.70" y="188.97" width="40.96" height="40.96" rx="8.19" fill="#c5cdd8"/>
  <rect x="95.88" y="235.52" width="40.96" height="40.96" rx="8.19" fill="#c5cdd8"/>
  <rect x="421.70" y="235.52" width="40.96" height="40.96" rx="8.19" fill="#c5cdd8"/>
  <rect x="95.88" y="282.07" width="40.96" height="40.96" rx="8.19" fill="#c5cdd8"/>
  <rect x="188.97" y="282.07" width="40.96" height="40.96" rx="8.19" fill="#c5cdd8"/>
  <rect x="235.52" y="282.07" width="40.96" height="40.96" rx="8.19" fill="#c5cdd8"/>
  <rect x="282.07" y="282.07" width="40.96" height="40.96" rx="8.19" fill="#c5cdd8"/>
  <rect x="328.61" y="282.07" width="40.96" height="40.96" rx="8.19" fill="#c5cdd8"/>
  <rect x="421.70" y="282.07" width="40.96" height="40.96" rx="8.19" fill="#c5cdd8"/>
  <rect x="95.88" y="328.61" width="40.96" height="40.96" rx="8.19" fill="#c5cdd8"/>
  <rect x="421.70" y="328.61" width="40.96" height="40.96" rx="8.19" fill="#c5cdd8"/>
  <rect x="95.88" y="375.16" width="40.96" height="40.96" rx="8.19" fill="#c5cdd8"/>
  <rect x="188.97" y="375.16" width="40.96" height="40.96" rx="8.19" fill="#c5cdd8"/>
  <rect x="235.52" y="375.16" width="40.96" height="40.96" rx="8.19" fill="#c5cdd8"/>
  <rect x="282.07" y="375.16" width="40.96" height="40.96" rx="8.19" fill="#c5cdd8"/>
  <rect x="328.61" y="375.16" width="40.96" height="40.96" rx="8.19" fill="#c5cdd8"/>
  <rect x="421.70" y="375.16" width="40.96" height="40.96" rx="8.19" fill="#c5cdd8"/>
  <rect x="421.70" y="421.70" width="40.96" height="40.96" rx="8.19" fill="#c5cdd8"/>
  <rect x="95.88" y="468.25" width="40.96" height="40.96" rx="8.19" fill="#c5cdd8"/>
  <rect x="142.43" y="468.25" width="40.96" height="40.96" rx="8.19" fill="#c5cdd8"/>
  <rect x="188.97" y="468.25" width="40.96" height="40.96" rx="8.19" fill="#c5cdd8"/>
  <rect x="235.52" y="468.25" width="40.96" height="40.96" rx="8.19" fill="#c5cdd8"/>
  <rect x="282.07" y="468.25" width="40.96" height="40.96" rx="8.19" fill="#c5cdd8"/>
  <rect x="328.61" y="468.25" width="40.96" height="40.96" rx="8.19" fill="#c5cdd8"/>
  <rect x="375.16" y="468.25" width="40.96" height="40.96" rx="8.19" fill="#c5cdd8"/>
  <rect x="421.70" y="468.25" width="40.96" height="40.96" rx="8.19" fill="#c5cdd8"/>
  <rect x="49.34" y="2.79" width="40.96" height="40.96" rx="8.19" fill="#3B82F6"/>
  <rect x="95.88" y="2.79" width="40.96" height="40.96" rx="8.19" fill="#3B82F6"/>
  <rect x="142.43" y="2.79" width="40.96" height="40.96" rx="8.19" fill="#3B82F6"/>
  <rect x="188.97" y="2.79" width="40.96" height="40.96" rx="8.19" fill="#3B82F6"/>
  <rect x="235.52" y="2.79" width="40.96" height="40.96" rx="8.19" fill="#3B82F6"/>
  <rect x="282.07" y="2.79" width="40.96" height="40.96" rx="8.19" fill="#3B82F6"/>
  <rect x="328.61" y="2.79" width="40.96" height="40.96" rx="8.19" fill="#3B82F6"/>
  <rect x="375.16" y="2.79" width="40.96" height="40.96" rx="8.19" fill="#3B82F6"/>
  <rect x="49.34" y="49.34" width="40.96" height="40.96" rx="8.19" fill="#3B82F6"/>
  <rect x="375.16" y="49.34" width="40.96" height="40.96" rx="8.19" fill="#3B82F6"/>
  <rect x="49.34" y="95.88" width="40.96" height="40.96" rx="8.19" fill="#3B82F6"/>
  <rect x="375.16" y="95.88" width="40.96" height="40.96" rx="8.19" fill="#3B82F6"/>
  <rect x="49.34" y="142.43" width="40.96" height="40.96" rx="8.19" fill="#3B82F6"/>
  <rect x="142.43" y="142.43" width="40.96" height="40.96" rx="8.19" fill="#3B82F6"/>
  <rect x="188.97" y="142.43" width="40.96" height="40.96" rx="8.19" fill="#3B82F6"/>
  <rect x="235.52" y="142.43" width="40.96" height="40.96" rx="8.19" fill="#3B82F6"/>
  <rect x="282.07" y="142.43" width="40.96" height="40.96" rx="8.19" fill="#3B82F6"/>
  <rect x="375.16" y="142.43" width="40.96" height="40.96" rx="8.19" fill="#3B82F6"/>
  <rect x="49.34" y="188.97" width="40.96" height="40.96" rx="8.19" fill="#3B82F6"/>
  <rect x="375.16" y="188.97" width="40.96" height="40.96" rx="8.19" fill="#3B82F6"/>
  <rect x="49.34" y="235.52" width="40.96" height="40.96" rx="8.19" fill="#3B82F6"/>
  <rect x="142.43" y="235.52" width="40.96" height="40.96" rx="8.19" fill="#3B82F6"/>
  <rect x="188.97" y="235.52" width="40.96" height="40.96" rx="8.19" fill="#3B82F6"/>
  <rect x="235.52" y="235.52" width="40.96" height="40.96" rx="8.19" fill="#3B82F6"/>
  <rect x="282.07" y="235.52" width="40.96" height="40.96" rx="8.19" fill="#3B82F6"/>
  <rect x="375.16" y="235.52" width="40.96" height="40.96" rx="8.19" fill="#3B82F6"/>
  <rect x="49.34" y="282.07" width="40.96" height="40.96" rx="8.19" fill="#3B82F6"/>
  <rect x="375.16" y="282.07" width="40.96" height="40.96" rx="8.19" fill="#3B82F6"/>
  <rect x="49.34" y="328.61" width="40.96" height="40.96" rx="8.19" fill="#3B82F6"/>
  <rect x="142.43" y="328.61" width="40.96" height="40.96" rx="8.19" fill="#3B82F6"/>
  <rect x="188.97" y="328.61" width="40.96" height="40.96" rx="8.19" fill="#3B82F6"/>
  <rect x="235.52" y="328.61" width="40.96" height="40.96" rx="8.19" fill="#3B82F6"/>
  <rect x="282.07" y="328.61" width="40.96" height="40.96" rx="8.19" fill="#3B82F6"/>
  <rect x="375.16" y="328.61" width="40.96" height="40.96" rx="8.19" fill="#3B82F6"/>
  <rect x="49.34" y="375.16" width="40.96" height="40.96" rx="8.19" fill="#3B82F6"/>
  <rect x="375.16" y="375.16" width="40.96" height="40.96" rx="8.19" fill="#3B82F6"/>
  <rect x="49.34" y="421.70" width="40.96" height="40.96" rx="8.19" fill="#3B82F6"/>
  <rect x="95.88" y="421.70" width="40.96" height="40.96" rx="8.19" fill="#3B82F6"/>
  <rect x="142.43" y="421.70" width="40.96" height="40.96" rx="8.19" fill="#3B82F6"/>
  <rect x="188.97" y="421.70" width="40.96" height="40.96" rx="8.19" fill="#3B82F6"/>
  <rect x="235.52" y="421.70" width="40.96" height="40.96" rx="8.19" fill="#3B82F6"/>
  <rect x="282.07" y="421.70" width="40.96" height="40.96" rx="8.19" fill="#3B82F6"/>
  <rect x="328.61" y="421.70" width="40.96" height="40.96" rx="8.19" fill="#3B82F6"/>
  <rect x="375.16" y="421.70" width="40.96" height="40.96" rx="8.19" fill="#3B82F6"/>
</svg>