<svg xmlns="http://www.w3.org/2000/svg" width="512.00" height="512.00" viewBox="0 0 512.00 512.00">
  <rect x="463.87" y="54.27" width="45.06" height="45.06" rx="9.01" fill="#c5cdd8"/>
  <rect x="412.67" y="105.47" width="45.06" height="45.06" rx="9.01" fill="#c5cdd8"/>
  <rect x="463.87" y="105.47" width="45.06" height="45.06" rx="9.01" fill="#c5cdd8"/>
  <rect x="361.47" y="156.67" width="45.06" height="45.06" rx="9.01" fill="#c5cdd8"/>
  <rect x="412.67" y="156.67" width="45.06" height="45.06" rx="9.01" fill="#c5cdd8"/>
  <rect x="310.27" y="207.87" width="45.06" height="45.06" rx="9.01" fill="#c5cdd8"/>
  <rect x="361.47" y="207.87" width="45.06" height="45.06" rx="9.01" fill="#c5cdd8"/>
  <rect x="259.07" y="259.07" width="45.06" height="45.06" rx="9.01" fill="#c5cdd8"/>
  <rect x="310.27" y="259.07" width="45.06" height="45.06" rx="9.01" fill="#c5cdd8"/>
  <rect x="207.87" y="310.27" width="45.06" height="45.06" rx="9.01" fill="#c5cdd8"/>
  <rect x="259.07" y="310.27" width="45.06" height="45.06" rx="9.01" fill="#c5cdd8"/>
  <rect x="156.67" y="361.47" width="45.06" height="45.06" rx="9.01" fill="#c5cdd8"/>
  <rect x="207.87" y="361.47" width="45.06" height="45.06" rx="9.01" fill="#c5cdd8"/>
  <rect x="156.67" y="412.67" width="45.06" height="45.06" rx="9.01" fill="#c5cdd8"/>
  <rect x="412.67" y="3.07" width="45.06" height="45.06" rx="9.01" fill="#3B82F6"/>
  <rect x="361.47" y="54.27" width="45.06" height="45.06" rx="9.01" fill="#3B82F6"/>
  <rect x="412.67" y="54.27" width="45.06" height="45.06" rx="9.01" fill="#3B82F6"/>
  <rect x="310.27" y="105.47" width="45.06" height="45.06" rx="9.01" fill="#3B82F6"/>
  <rect x="361.47" y="105.47" width="45.06" height="45.06" rx="9.01" fill="#3B82F6"/>
  <rect x="259.07" y="156.67" width="45.06" height="45.06" rx="9.01" fill="#3B82F6"/>
  <rect x="310.27" y="156.67" width="45.06" height="45.06" rx="9.01" fill="#3B82F6"/>
  <rect x="3.07" y="207.87" width="45.06" height="45.06" rx="9.01" fill="#3B82F6"/>
  <rect x="207.87" y="207.87" width="45.06" height="45.06" rx="9.01" fill="#3B82F6"/>
  <rect x="259.07" y="207.87" width="45.06" height="45.06" rx="9.01" fill="#3B82F6"/>
  <rect x="3.07" y="259.07" width="45.06" height="45.06" rx="9.01" fill="#3B82F6"/>
  <rect x="54.27" y="259.07" width="45.06" height="45.06" rx="9.01" fill="#3B82F6"/>
  <rect x="156.67" y="259.07" width="45.06" height="45.06" rx="9.01" fill="#3B82F6"/>
  <rect x="207.87" y="259.07" width="45.06" height="45.06" rx="9.01" fill="#3B82F6"/>
  <rect x="54.27" y="310.27" width="45.06" height="45.06" rx="9.01" fill="#3B82F6"/>
  <rect x="105.47" y="310.27" width="45.06" height="45.06" rx="9.01" fill="#3B82F6"/>
  <rect x="156.67" y="310.27" width="45.06" height="45.06" rx="9.01" fill="#3B82F6"/>
  <rect x="105.47" y="361.47" width="45.06" height="45.06" rx="9.01" fill="#3B82F6"/>
</svg>