<svg xmlns="http://www.w3.org/2000/svg" width="512.00" height="512.00" viewBox="0 0 512.00 512.00">
  <rect x="4.39" y="4.39" width="64.37" height="64.37" rx="12.87" fill="#606060"/>
  <rect x="77.53" y="4.39" width="64.37" height="64.37" rx="12.87" fill="#606060"/>
  <rect x="150.67" y="4.39" width="64.37" height="64.37" rx="12.87" fill="#606060"/>
  <rect x="223.82" y="4.39" width="64.37" height="64.37" rx="12.87" fill="#606060"/>
  <rect x="4.39" y="77.53" width="64.37" height="64.37" rx="12.87" fill="#606060"/>
  <rect x="223.82" y="77.53" width="64.37" height="64.37" rx="12.87" fill="#606060"/>
  <rect x="296.96" y="77.53" width="64.37" height="64.37" rx="12.87" fill="#606060"/>
  <rect x="4.39" y="150.67" width="64.37" height="64.37" rx="12.87" fill="#606060"/>
  <rect x="296.96" y="150.67" width="64.37" height="64.37" rx="12.87" fill="#606060"/>
  <rect x="370.10" y="150.67" width="64.37" height="64.37" rx="12.87" fill="#606060"/>
  <rect x="4.39" y="223.82" width="64.37" height="64.37" rx="12.87" fill="#606060"/>
  <rect x="370.10" y="223.82" width="64.37" height="64.37" rx="12.87" fill="#606060"/>
  <rect x="4.39" y="296.96" width="64.37" height="64.37" rx="12.87" fill="#606060"/>
  <rect x="370.10" y="296.96" width="64.37" height="64.37" rx="12.87" fill="#606060"/>
  <rect x="4.39" y="370.10" width="64.37" height="64.37" rx="12.87" fill="#606060"/>
  <rect x="370.10" y="370.10" width="64.37" height="64.37" rx="12.87" fill="#606060"/>
  <rect x="4.39" y="443.25" width="64.37" height="64.37" rx="12.87" fill="#606060"/>
  <rect x="77.53" y="443.25" width="64.37" height="64.37" rx="12.87" fill="#606060"/>
  <rect x="150.67" y="443.25" width="64.37" height="64.37" rx="12.87" fill="#606060"/>
  <rect x="223.82" y="443.25" width="64.37" height="64.37" rx="12.87" fill="#606060"/>
  <rect x="296.96" y="443.25" width="64.37" height="64.37" rx="12.87" fill="#606060"/>
  <rect x="370.10" y="443.25" width="64.37" height="64.37" rx="12.87" fill="#606060"/>
</svg>