<svg xmlns="http://www.w3.org/2000/svg" width="512.00" height="512.00" viewBox="0 0 512.00 512.00">
  <rect x="131.84" y="3.84" width="56.32" height="56.32" rx="11.26" fill="#606060"/>
  <rect x="195.84" y="3.84" width="56.32" height="56.32" rx="11.26" fill="#606060"/>
  <rect x="259.84" y="3.84" width="56.32" height="56.32" rx="11.26" fill="#606060"/>
  <rect x="323.84" y="3.84" width="56.32" height="56.32" rx="11.26" fill="#606060"/>
  <rect x="67.84" y="67.84" width="56.32" height="56.32" rx="11.26" fill="#606060"/>
  <rect x="131.84" y="67.84" width="56.32" height="56.32" rx="11.26" fill="#606060"/>
  <rect x="195.84" y="67.84" width="56.32" height="56.32" rx="11.26" fill="#606060"/>
  <rect x="259.84" y="67.84" width="56.32" height="56.32" rx="11.26" fill="#606060"/>
  <rect x="323.84" y="67.84" width="56.32" height="56.32" rx="11.26" fill="#606060"/>
  <rect x="387.84" y="67.84" width="56.32" height="56.32" rx="11.26" fill="#606060"/>
  <rect x="3.84" y="131.84" width="56.32" height="56.32" rx="11.26" fill="#606060"/>
  <rect x="67.84" y="131.84" width="56.32" height="56.32" rx="11.26" fill="#606060"/>
  <rect x="387.84" y="131.84" width="56.32" height="56.32" rx="11.26" fill="#606060"/>
  <rect x="451.84" y="131.84" width="56.32" height="56.32" rx="11.26" fill="#606060"/>
  <rect x="3.84" y="195.84" width="56.32" height="56.32" rx="11.26" fill="#606060"/>
  <rect x="67.84" y="195.84" width="56.32" height="56.32" rx="11.26" fill="#606060"/>
  <rect x="387.84" y="195.84" width="56.32" height="56.32" rx="11.26" fill="#606060"/>
  <rect x="451.84" y="195.84" width="56.32" height="56.32" rx="11.26" fill="#606060"/>
  <rect x="3.84" y="259.84" width="56.32" height="56.32" rx="11.26" fill="#606060"/>
  <rect x="67.84" y="259.84" width="56.32" height="56.32" rx="11.26" fill="#606060"/>
  <rect x="387.84" y="259.84" width="56.32" height="56.32" rx="11.26" fill="#606060"/>
  <rect x="451.84" y="259.84" width="56.32" height="56.32" rx="11.26" fill="#606060"/>
  <rect x="3.84" y="323.84" width="56.32" height="56.32" rx="11.26" fill="#606060"/>
  <rect x="67.84" y="323.84" width="56.32" height="56.32" rx="11.26" fill="#606060"/>
  <rect x="387.84" y="323.84" width="56.32" height="56.32" rx="11.26" fill="#606060"/>
  <rect x="451.84" y="323.84" width="56.32" height="56.32" rx="11.26" fill="#606060"/>
  <rect x="67.84" y="387.84" width="56.32" height="56.32" rx="11.26" fill="#606060"/>
  <rect x="131.84" y="387.84" width="56.32" height="56.32" rx="11.26" fill="#606060"/>
  <rect x="323.84" y="387.84" width="56.32" height="56.32" rx="11.26" fill="#606060"/>
  <rect x="387.84" y="387.84" width="56.32" height="56.32" rx="11.26" fill="#606060"/>
  <rect x="131.84" y="451.84" width="56.32" height="56.32" rx="11.26" fill="#606060"/>
  <rect x="323.84" y="451.84" width="56.32" height="56.32" rx="11.26" fill="#606060"/>
</svg>