<svg xmlns="http://www.w3.org/2000/svg" width="512.00" height="512.00" viewBox="0 0 512.00 512.00">
  <rect x="104.45" y="36.18" width="30.04" height="30.04" rx="6.01" fill="#c5cdd8"/>
  <rect x="138.58" y="36.18" width="30.04" height="30.04" rx="6.01" fill="#c5cdd8"/>
  <rect x="172.71" y="36.18" width="30.04" height="30.04" rx="6.01" fill="#c5cdd8"/>
  <rect x="206.85" y="36.18" width="30.04" height="30.04" rx="6.01" fill="#c5cdd8"/>
  <rect x="240.98" y="36.18" width="30.04" height="30.04" rx="6.01" fill="#c5cdd8"/>
  <rect x="275.11" y="36.18" width="30.04" height="30.04" rx="6.01" fill="#c5cdd8"/>
  <rect x="309.25" y="36.18" width="30.04" height="30.04" rx="6.01" fill="#c5cdd8"/>
  <rect x="377.51" y="36.18" width="30.04" height="30.04" rx="6.01" fill="#c5cdd8"/>
  <rect x="104.45" y="70.31" width="30.04" height="30.04" rx="6.01" fill="#c5cdd8"/>
  <rect x="377.51" y="70.31" width="30.04" height="30.04" rx="6.01" fill="#c5cdd8"/>
  <rect x="104.45" y="104.45" width="30.04" height="30.04" rx="6.01" fill="#c5cdd8"/>
  <rect x="377.51" y="104.45" width="30.04" height="30.04" rx="6.01" fill="#c5cdd8"/>
  <rect x="377.51" y="138.58" width="30.04" height="30.04" rx="6.01" fill="#c5cdd8"/>
  <rect x="309.25" y="172.71" width="30.04" height="30.04" rx="6.01" fill="#c5cdd8"/>
  <rect x="343.38" y="172.71" width="30.04" height="30.04" rx="6.01" fill="#c5cdd8"/>
  <rect x="275.11" y="206.85" width="30.04" height="30.04" rx="6.01" fill="#c5cdd8"/>
  <rect x="309.25" y="206.85" width="30.04" height="30.04" rx="6.01" fill="#c5cdd8"/>
  <rect x="206.85" y="240.98" width="30.04" height="30.04" rx="6.01" fill="#c5cdd8"/>
  <rect x="240.98" y="240.98" width="30.04" height="30.04" rx="6.01" fill="#c5cdd8"/>
  <rect x="275.11" y="240.98" width="30.04" height="30.04" rx="6.01" fill="#c5cdd8"/>
  <rect x="172.71" y="309.25" width="30.04" height="30.04" rx="6.01" fill="#c5cdd8"/>
  <rect x="138.58" y="343.38" width="30.04" height="30.04" rx="6.01" fill="#c5cdd8"/>
  <rect x="377.51" y="377.51" width="30.04" height="30.04" rx="6.01" fill="#c5cdd8"/>
  <rect x="377.51" y="411.65" width="30.04" height="30.04" rx="6.01" fill="#c5cdd8"/>
  <rect x="377.51" y="445.78" width="30.04" height="30.04" rx="6.01" fill="#c5cdd8"/>
  <rect x="104.45" y="479.91" width="30.04" height="30.04" rx="6.01" fill="#c5cdd8"/>
  <rect x="138.58" y="479.91" width="30.04" height="30.04" rx="6.01" fill="#c5cdd8"/>
  <rect x="172.71" y="479.91" width="30.04" height="30.04" rx="6.01" fill="#c5cdd8"/>
  <rect x="206.85" y="479.91" width="30.04" height="30.04" rx="6.01" fill="#c5cdd8"/>
  <rect x="240.98" y="479.91" width="30.04" height="30.04" rx="6.01" fill="#c5cdd8"/>
  <rect x="275.11" y="479.91" width="30.04" height="30.04" rx="6.01" fill="#c5cdd8"/>
  <rect x="309.25" y="479.91" width="30.04" height="30.04" rx="6.01" fill="#c5cdd8"/>
  <rect x="343.38" y="479.91" width="30.04" height="30.04" rx="6.01" fill="#c5cdd8"/>
  <rect x="377.51" y="479.91" width="30.04" height="30.04" rx="6.01" fill="#c5cdd8"/>
  <rect x="70.31" y="2.05" width="30.04" height="30.04" rx="6.01" fill="#3B82F6"/>
  <rect x="104.45" y="2.05" width="30.04" height="30.04" rx="6.01" fill="#3B82F6"/>
  <rect x="138.58" y="2.05" width="30.04" height="30.04" rx="6.01" fill="#3B82F6"/>
  <rect x="172.71" y="2.05" width="30.04" height="30.04" rx="6.01" fill="#3B82F6"/>
  <rect x="206.85" y="2.05" width="30.04" height="30.04" rx="6.01" fill="#3B82F6"/>
  <rect x="240.98" y="2.05" width="30.04" height="30.04" rx="6.01" fill="#3B82F6"/>
  <rect x="275.11" y="2.05" width="30.04" height="30.04" rx="6.01" fill="#3B82F6"/>
  <rect x="309.25" y="2.05" width="30.04" height="30.04" rx="6.01" fill="#3B82F6"/>
  <rect x="343.38" y="2.05" width="30.04" height="30.04" rx="6.01" fill="#3B82F6"/>
  <rect x="70.31" y="36.18" width="30.04" height="30.04" rx="6.01" fill="#3B82F6"/>
  <rect x="343.38" y="36.18" width="30.04" height="30.04" rx="6.01" fill="#3B82F6"/>
  <rect x="70.31" y="70.31" width="30.04" height="30.04" rx="6.01" fill="#3B82F6"/>
  <rect x="343.38" y="70.31" width="30.04" height="30.04" rx="6.01" fill="#3B82F6"/>
  <rect x="343.38" y="104.45" width="30.04" height="30.04" rx="6.01" fill="#3B82F6"/>
  <rect x="104.45" y="138.58" width="30.04" height="30.04" rx="6.01" fill="#3B82F6"/>
  <rect x="138.58" y="138.58" width="30.04" height="30.04" rx="6.01" fill="#3B82F6"/>
  <rect x="172.71" y="138.58" width="30.04" height="30.04" rx="6.01" fill="#3B82F6"/>
  <rect x="206.85" y="138.58" width="30.04" height="30.04" rx="6.01" fill="#3B82F6"/>
  <rect x="240.98" y="138.58" width="30.04" height="30.04" rx="6.01" fill="#3B82F6"/>
  <rect x="275.11" y="138.58" width="30.04" height="30.04" rx="6.01" fill="#3B82F6"/>
  <rect x="309.25" y="138.58" width="30.04" height="30.04" rx="6.01" fill="#3B82F6"/>
  <rect x="138.58" y="172.71" width="30.04" height="30.04" rx="6.01" fill="#3B82F6"/>
  <rect x="172.71" y="172.71" width="30.04" height="30.04" rx="6.01" fill="#3B82F6"/>
  <rect x="206.85" y="172.71" width="30.04" height="30.04" rx="6.01" fill="#3B82F6"/>
  <rect x="240.98" y="172.71" width="30.04" height="30.04" rx="6.01" fill="#3B82F6"/>
  <rect x="275.11" y="172.71" width="30.04" height="30.04" rx="6.01" fill="#3B82F6"/>
  <rect x="172.71" y="206.85" width="30.04" height="30.04" rx="6.01" fill="#3B82F6"/>
  <rect x="206.85" y="206.85" width="30.04" height="30.04" rx="6.01" fill="#3B82F6"/>
  <rect x="240.98" y="206.85" width="30.04" height="30.04" rx="6.01" fill="#3B82F6"/>
  <rect x="138.58" y="275.11" width="30.04" height="30.04" rx="6.01" fill="#3B82F6"/>
  <rect x="275.11" y="275.11" width="30.04" height="30.04" rx="6.01" fill="#3B82F6"/>
  <rect x="104.45" y="309.25" width="30.04" height="30.04" rx="6.01" fill="#3B82F6"/>
  <rect x="309.25" y="309.25" width="30.04" height="30.04" rx="6.01" fill="#3B82F6"/>
  <rect x="206.85" y="343.38" width="30.04" height="30.04" rx="6.01" fill="#3B82F6"/>
  <rect x="343.38" y="343.38" width="30.04" height="30.04" rx="6.01" fill="#3B82F6"/>
  <rect x="70.31" y="377.51" width="30.04" height="30.04" rx="6.01" fill="#3B82F6"/>
  <rect x="138.58" y="377.51" width="30.04" height="30.04" rx="6.01" fill="#3B82F6"/>
  <rect x="172.71" y="377.51" width="30.04" height="30.04" rx="6.01" fill="#3B82F6"/>
  <rect x="206.85" y="377.51" width="30.04" height="30.04" rx="6.01" fill="#3B82F6"/>
  <rect x="240.98" y="377.51" width="30.04" height="30.04" rx="6.01" fill="#3B82F6"/>
  <rect x="275.11" y="377.51" width="30.04" height="30.04" rx="6.01" fill="#3B82F6"/>
  <rect x="343.38" y="377.51" width="30.04" height="30.04" rx="6.01" fill="#3B82F6"/>
  <rect x="70.31" y="411.65" width="30.04" height="30.04" rx="6.01" fill="#3B82F6"/>
  <rect x="104.45" y="411.65" width="30.04" height="30.04" rx="6.01" fill="#3B82F6"/>
  <rect x="138.58" y="411.65" width="30.04" height="30.04" rx="6.01" fill="#3B82F6"/>
  <rect x="172.71" y="411.65" width="30.04" height="30.04" rx="6.01" fill="#3B82F6"/>
  <rect x="206.85" y="411.65" width="30.04" height="30.04" rx="6.01" fill="#3B82F6"/>
  <rect x="240.98" y="411.65" width="30.04" height="30.04" rx="6.01" fill="#3B82F6"/>
  <rect x="275.11" y="411.65" width="30.04" height="30.04" rx="6.01" fill="#3B82F6"/>
  <rect x="309.25" y="411.65" width="30.04" height="30.04" rx="6.01" fill="#3B82F6"/>
  <rect x="343.38" y="411.65" width="30.04" height="30.04" rx="6.01" fill="#3B82F6"/>
  <rect x="70.31" y="445.78" width="30.04" height="30.04" rx="6.01" fill="#3B82F6"/>
  <rect x="104.45" y="445.78" width="30.04" height="30.04" rx="6.01" fill="#3B82F6"/>
  <rect x="138.58" y="445.78" width="30.04" height="30.04" rx="6.01" fill="#3B82F6"/>
  <rect x="172.71" y="445.78" width="30.04" height="30.04" rx="6.01" fill="#3B82F6"/>
  <rect x="206.85" y="445.78" width="30.04" height="30.04" rx="6.01" fill="#3B82F6"/>
  <rect x="240.98" y="445.78" width="30.04" height="30.04" rx="6.01" fill="#3B82F6"/>
  <rect x="275.11" y="445.78" width="30.04" height="30.04" rx="6.01" fill="#3B82F6"/>
  <rect x="309.25" y="445.78" width="30.04" height="30.04" rx="6.01" fill="#3B82F6"/>
  <rect x="343.38" y="445.78" width="30.04" height="30.04" rx="6.01" fill="#3B82F6"/>
</svg>