<svg xmlns="http://www.w3.org/2000/svg" width="512.00" height="512.00" viewBox="0 0 512.00 512.00">
  <rect x="458.52" y="60.30" width="50.06" height="50.06" rx="10.01" fill="#c5cdd8"/>
  <rect x="458.52" y="117.19" width="50.06" height="50.06" rx="10.01" fill="#c5cdd8"/>
  <rect x="458.52" y="174.08" width="50.06" height="50.06" rx="10.01" fill="#c5cdd8"/>
  <rect x="458.52" y="230.97" width="50.06" height="50.06" rx="10.01" fill="#c5cdd8"/>
  <rect x="458.52" y="287.86" width="50.06" height="50.06" rx="10.01" fill="#c5cdd8"/>
  <rect x="458.52" y="344.75" width="50.06" height="50.06" rx="10.01" fill="#c5cdd8"/>
  <rect x="458.52" y="401.64" width="50.06" height="50.06" rx="10.01" fill="#c5cdd8"/>
  <rect x="60.30" y="458.52" width="50.06" height="50.06" rx="10.01" fill="#c5cdd8"/>
  <rect x="117.19" y="458.52" width="50.06" height="50.06" rx="10.01" fill="#c5cdd8"/>
  <rect x="174.08" y="458.52" width="50.06" height="50.06" rx="10.01" fill="#c5cdd8"/>
  <rect x="230.97" y="458.52" width="50.06" height="50.06" rx="10.01" fill="#c5cdd8"/>
  <rect x="287.86" y="458.52" width="50.06" height="50.06" rx="10.01" fill="#c5cdd8"/>
  <rect x="344.75" y="458.52" width="50.06" height="50.06" rx="10.01" fill="#c5cdd8"/>
  <rect x="401.64" y="458.52" width="50.06" height="50.06" rx="10.01" fill="#c5cdd8"/>
  <rect x="458.52" y="458.52" width="50.06" height="50.06" rx="10.01" fill="#c5cdd8"/>
  <rect x="3.41" y="3.41" width="50.06" height="50.06" rx="10.01" fill="#3B82F6"/>
  <rect x="60.30" y="3.41" width="50.06" height="50.06" rx="10.01" fill="#3B82F6"/>
  <rect x="117.19" y="3.41" width="50.06" height="50.06" rx="10.01" fill="#3B82F6"/>
  <rect x="174.08" y="3.41" width="50.06" height="50.06" rx="10.01" fill="#3B82F6"/>
  <rect x="230.97" y="3.41" width="50.06" height="50.06" rx="10.01" fill="#3B82F6"/>
  <rect x="287.86" y="3.41" width="50.06" height="50.06" rx="10.01" fill="#3B82F6"/>
  <rect x="344.75" y="3.41" width="50.06" height="50.06" rx="10.01" fill="#3B82F6"/>
  <rect x="401.64" y="3.41" width="50.06" height="50.06" rx="10.01" fill="#3B82F6"/>
  <rect x="3.41" y="60.30" width="50.06" height="50.06" rx="10.01" fill="#3B82F6"/>
  <rect x="60.30" y="60.30" width="50.06" height="50.06" rx="10.01" fill="#3B82F6"/>
  <rect x="117.19" y="60.30" width="50.06" height="50.06" rx="10.01" fill="#3B82F6"/>
  <rect x="174.08" y="60.30" width="50.06" height="50.06" rx="10.01" fill="#3B82F6"/>
  <rect x="230.97" y="60.30" width="50.06" height="50.06" rx="10.01" fill="#3B82F6"/>
  <rect x="287.86" y="60.30" width="50.06" height="50.06" rx="10.01" fill="#3B82F6"/>
  <rect x="344.75" y="60.30" width="50.06" height="50.06" rx="10.01" fill="#3B82F6"/>
  <rect x="401.64" y="60.30" width="50.06" height="50.06" rx="10.01" fill="#3B82F6"/>
  <rect x="3.41" y="117.19" width="50.06" height="50.06" rx="10.01" fill="#3B82F6"/>
  <rect x="60.30" y="117.19" width="50.06" height="50.06" rx="10.01" fill="#3B82F6"/>
  <rect x="117.19" y="117.19" width="50.06" height="50.06" rx="10.01" fill="#3B82F6"/>
  <rect x="174.08" y="117.19" width="50.06" height="50.06" rx="10.01" fill="#3B82F6"/>
  <rect x="230.97" y="117.19" width="50.06" height="50.06" rx="10.01" fill="#3B82F6"/>
  <rect x="287.86" y="117.19" width="50.06" height="50.06" rx="10.01" fill="#3B82F6"/>
  <rect x="344.75" y="117.19" width="50.06" height="50.06" rx="10.01" fill="#3B82F6"/>
  <rect x="401.64" y="117.19" width="50.06" height="50.06" rx="10.01" fill="#3B82F6"/>
  <rect x="3.41" y="174.08" width="50.06" height="50.06" rx="10.01" fill="#3B82F6"/>
  <rect x="60.30" y="174.08" width="50.06" height="50.06" rx="10.01" fill="#3B82F6"/>
  <rect x="117.19" y="174.08" width="50.06" height="50.06" rx="10.01" fill="#3B82F6"/>
  <rect x="174.08" y="174.08" width="50.06" height="50.06" rx="10.01" fill="#3B82F6"/>
  <rect x="230.97" y="174.08" width="50.06" height="50.06" rx="10.01" fill="#3B82F6"/>
  <rect x="287.86" y="174.08" width="50.06" height="50.06" rx="10.01" fill="#3B82F6"/>
  <rect x="344.75" y="174.08" width="50.06" height="50.06" rx="10.01" fill="#3B82F6"/>
  <rect x="401.64" y="174.08" width="50.06" height="50.06" rx="10.01" fill="#3B82F6"/>
  <rect x="3.41" y="230.97" width="50.06" height="50.06" rx="10.01" fill="#3B82F6"/>
  <rect x="60.30" y="230.97" width="50.06" height="50.06" rx="10.01" fill="#3B82F6"/>
  <rect x="117.19" y="230.97" width="50.06" height="50.06" rx="10.01" fill="#3B82F6"/>
  <rect x="174.08" y="230.97" width="50.06" height="50.06" rx="10.01" fill="#3B82F6"/>
  <rect x="230.97" y="230.97" width="50.06" height="50.06" rx="10.01" fill="#3B82F6"/>
  <rect x="287.86" y="230.97" width="50.06" height="50.06" rx="10.01" fill="#3B82F6"/>
  <rect x="344.75" y="230.97" width="50.06" height="50.06" rx="10.01" fill="#3B82F6"/>
  <rect x="401.64" y="230.97" width="50.06" height="50.06" rx="10.01" fill="#3B82F6"/>
  <rect x="3.41" y="287.86" width="50.06" height="50.06" rx="10.01" fill="#3B82F6"/>
  <rect x="60.30" y="287.86" width="50.06" height="50.06" rx="10.01" fill="#3B82F6"/>
  <rect x="117.19" y="287.86" width="50.06" height="50.06" rx="10.01" fill="#3B82F6"/>
  <rect x="174.08" y="287.86" width="50.06" height="50.06" rx="10.01" fill="#3B82F6"/>
  <rect x="230.97" y="287.86" width="50.06" height="50.06" rx="10.01" fill="#3B82F6"/>
  <rect x="287.86" y="287.86" width="50.06" height="50.06" rx="10.01" fill="#3B82F6"/>
  <rect x="344.75" y="287.86" width="50.06" height="50.06" rx="10.01" fill="#3B82F6"/>
  <rect x="401.64" y="287.86" width="50.06" height="50.06" rx="10.01" fill="#3B82F6"/>
  <rect x="3.41" y="344.75" width="50.06" height="50.06" rx="10.01" fill="#3B82F6"/>
  <rect x="60.30" y="344.75" width="50.06" height="50.06" rx="10.01" fill="#3B82F6"/>
  <rect x="117.19" y="344.75" width="50.06" height="50.06" rx="10.01" fill="#3B82F6"/>
  <rect x="174.08" y="344.75" width="50.06" height="50.06" rx="10.01" fill="#3B82F6"/>
  <rect x="230.97" y="344.75" width="50.06" height="50.06" rx="10.01" fill="#3B82F6"/>
  <rect x="287.86" y="344.75" width="50.06" height="50.06" rx="10.01" fill="#3B82F6"/>
  <rect x="344.75" y="344.75" width="50.06" height="50.06" rx="10.01" fill="#3B82F6"/>
  <rect x="401.64" y="344.75" width="50.06" height="50.06" rx="10.01" fill="#3B82F6"/>
  <rect x="3.41" y="401.64" width="50.06" height="50.06" rx="10.01" fill="#3B82F6"/>
  <rect x="60.30" y="401.64" width="50.06" height="50.06" rx="10.01" fill="#3B82F6"/>
  <rect x="117.19" y="401.64" width="50.06" height="50.06" rx="10.01" fill="#3B82F6"/>
  <rect x="174.08" y="401.64" width="50.06" height="50.06" rx="10.01" fill="#3B82F6"/>
  <rect x="230.97" y="401.64" width="50.06" height="50.06" rx="10.01" fill="#3B82F6"/>
  <rect x="287.86" y="401.64" width="50.06" height="50.06" rx="10.01" fill="#3B82F6"/>
  <rect x="344.75" y="401.64" width="50.06" height="50.06" rx="10.01" fill="#3B82F6"/>
  <rect x="401.64" y="401.64" width="50.06" height="50.06" rx="10.01" fill="#3B82F6"/>
</svg>